<svg width="90" height="90" viewBox="0 0 90 90" fill="none" xmlns="http://www.w3.org/2000/svg">
<g filter="url(#filter0_ii_414_1208)">
<path fill-rule="evenodd" clip-rule="evenodd" d="M45 10.5C25.9462 10.5 10.5 25.9462 10.5 45C10.5 64.0538 25.9462 79.5 45 79.5C64.0538 79.5 79.5 64.0538 79.5 45C79.5 25.9462 64.0538 10.5 45 10.5ZM4.5 45C4.5 22.6325 22.6325 4.5 45 4.5C67.3675 4.5 85.5 22.6325 85.5 45C85.5 67.3675 67.3675 85.5 45 85.5C22.6325 85.5 4.5 67.3675 4.5 45Z" fill="url(#paint0_linear_414_1208)"/>
</g>
<g filter="url(#filter1_ii_414_1208)">
<path fill-rule="evenodd" clip-rule="evenodd" d="M45 26.25C46.6569 26.25 48 27.5931 48 29.25V45.75C48 47.4069 46.6569 48.75 45 48.75C43.3431 48.75 42 47.4069 42 45.75V29.25C42 27.5931 43.3431 26.25 45 26.25ZM45 58.875C46.6569 58.875 48 60.2181 48 61.875V63.75C48 65.4069 46.6569 66.75 45 66.75C43.3431 66.75 42 65.4069 42 63.75V61.875C42 60.2181 43.3431 58.875 45 58.875Z" fill="url(#paint1_linear_414_1208)"/>
</g>
<defs>
<filter id="filter0_ii_414_1208" x="2.5" y="2.5" width="89" height="89" filterUnits="userSpaceOnUse" color-interpolation-filters="sRGB">
<feFlood flood-opacity="0" result="BackgroundImageFix"/>
<feBlend mode="normal" in="SourceGraphic" in2="BackgroundImageFix" result="shape"/>
<feColorMatrix in="SourceAlpha" type="matrix" values="0 0 0 0 0 0 0 0 0 0 0 0 0 0 0 0 0 0 127 0" result="hardAlpha"/>
<feOffset dx="6" dy="6"/>
<feGaussianBlur stdDeviation="6"/>
<feComposite in2="hardAlpha" operator="arithmetic" k2="-1" k3="1"/>
<feColorMatrix type="matrix" values="0 0 0 0 0.823529 0 0 0 0 0.305882 0 0 0 0 0.192157 0 0 0 0.7 0"/>
<feBlend mode="normal" in2="shape" result="effect1_innerShadow_414_1208"/>
<feColorMatrix in="SourceAlpha" type="matrix" values="0 0 0 0 0 0 0 0 0 0 0 0 0 0 0 0 0 0 127 0" result="hardAlpha"/>
<feOffset dx="-2" dy="-2"/>
<feGaussianBlur stdDeviation="2"/>
<feComposite in2="hardAlpha" operator="arithmetic" k2="-1" k3="1"/>
<feColorMatrix type="matrix" values="0 0 0 0 1 0 0 0 0 1 0 0 0 0 1 0 0 0 0.25 0"/>
<feBlend mode="normal" in2="effect1_innerShadow_414_1208" result="effect2_innerShadow_414_1208"/>
</filter>
<filter id="filter1_ii_414_1208" x="40" y="24.25" width="14" height="48.5" filterUnits="userSpaceOnUse" color-interpolation-filters="sRGB">
<feFlood flood-opacity="0" result="BackgroundImageFix"/>
<feBlend mode="normal" in="SourceGraphic" in2="BackgroundImageFix" result="shape"/>
<feColorMatrix in="SourceAlpha" type="matrix" values="0 0 0 0 0 0 0 0 0 0 0 0 0 0 0 0 0 0 127 0" result="hardAlpha"/>
<feOffset dx="6" dy="6"/>
<feGaussianBlur stdDeviation="6"/>
<feComposite in2="hardAlpha" operator="arithmetic" k2="-1" k3="1"/>
<feColorMatrix type="matrix" values="0 0 0 0 0.823529 0 0 0 0 0.305882 0 0 0 0 0.192157 0 0 0 0.7 0"/>
<feBlend mode="normal" in2="shape" result="effect1_innerShadow_414_1208"/>
<feColorMatrix in="SourceAlpha" type="matrix" values="0 0 0 0 0 0 0 0 0 0 0 0 0 0 0 0 0 0 127 0" result="hardAlpha"/>
<feOffset dx="-2" dy="-2"/>
<feGaussianBlur stdDeviation="2"/>
<feComposite in2="hardAlpha" operator="arithmetic" k2="-1" k3="1"/>
<feColorMatrix type="matrix" values="0 0 0 0 1 0 0 0 0 1 0 0 0 0 1 0 0 0 0.25 0"/>
<feBlend mode="normal" in2="effect1_innerShadow_414_1208" result="effect2_innerShadow_414_1208"/>
</filter>
<linearGradient id="paint0_linear_414_1208" x1="5.78571" y1="9.07258" x2="84.1095" y2="82.9414" gradientUnits="userSpaceOnUse">
<stop stop-color="#FDD8A0"/>
<stop offset="1" stop-color="#FC657C"/>
</linearGradient>
<linearGradient id="paint1_linear_414_1208" x1="42.0952" y1="28.5363" x2="52.8476" y2="30.0386" gradientUnits="userSpaceOnUse">
<stop stop-color="#FDD8A0"/>
<stop offset="1" stop-color="#FC657C"/>
</linearGradient>
</defs>
</svg>
