<svg width="30" height="30" viewBox="0 0 30 30" fill="none" xmlns="http://www.w3.org/2000/svg">
<circle cx="15" cy="15" r="15" fill="url(#paint0_linear_119_1427)"/>
<path fill-rule="evenodd" clip-rule="evenodd" d="M16.3737 8.03648C16.2679 8.09405 15.1028 9.25869 15.0483 9.36135C14.9592 9.52928 14.9924 9.7205 15.1387 9.88161C15.2007 9.94987 15.1916 9.96046 14.3382 10.8134L13.4749 11.6761L13.3794 11.5846C13.272 11.4817 13.1146 11.4386 12.9738 11.4735C12.8692 11.4995 11.6693 12.6665 11.5875 12.8219C11.5609 12.8723 11.5392 12.9713 11.5392 13.042C11.5392 13.1664 11.5927 13.2241 13.1981 14.8295L14.8571 16.4884L15.0337 16.4715L15.2102 16.4545L15.8367 15.8307C16.1812 15.4876 16.485 15.1657 16.5117 15.1153C16.5941 14.9599 16.5734 14.8001 16.4531 14.663L16.3458 14.5409L16.432 14.4546L16.5183 14.3684L18.5885 16.7554C19.9429 18.317 20.7098 19.1751 20.8063 19.2369C21.1127 19.4331 21.5602 19.511 21.9136 19.4294C22.7637 19.2334 23.2421 18.2631 22.8752 17.4791C22.8209 17.363 22.7175 17.2028 22.6455 17.123C22.5734 17.0432 21.4915 16.0924 20.2414 15.01C18.9912 13.9276 17.954 13.0294 17.9365 13.0139C17.9175 12.997 17.9371 12.9512 17.985 12.9002C18.0639 12.8161 18.0665 12.8158 18.1355 12.8785C18.2491 12.9817 18.3448 13.0186 18.4983 13.0186C18.6403 13.0186 18.6534 13.0081 19.2835 12.3825C19.6359 12.0327 19.946 11.7052 19.9726 11.6548C20.0341 11.538 20.034 11.4115 19.9721 11.2952C19.9133 11.1846 16.8121 8.08825 16.7067 8.03495C16.6134 7.98776 16.462 7.98844 16.3737 8.03648ZM18.7484 11.763L18.46 12.0514L17.2137 10.8051L15.9674 9.5588L16.2549 9.26981L16.5424 8.98079L17.7896 10.2277L19.0369 11.4746L18.7484 11.763ZM8.33311 9.11379C8.29579 9.13017 8.22709 9.18459 8.18044 9.23473C8.10098 9.32013 8.09491 9.35256 8.08439 9.74679L8.07316 10.1677L7.9323 10.2056C7.56142 10.3055 7.26639 10.5525 7.105 10.8982C7.02426 11.0711 7.01001 11.1452 7.01014 11.3902C7.01028 11.6346 7.02487 11.7101 7.10595 11.8858C7.22598 12.146 7.45807 12.3766 7.72243 12.4983C7.90686 12.5833 7.97301 12.5938 8.42576 12.6103L8.92557 12.6285L9.03644 12.7394C9.13188 12.8349 9.14735 12.8738 9.14735 13.0186C9.14735 13.1635 9.13188 13.2025 9.03654 13.2979L8.92571 13.4088L8.41535 13.4198C8.08073 13.4269 7.88962 13.418 7.86034 13.3937C7.83581 13.3733 7.8065 13.299 7.79524 13.2286C7.78238 13.1481 7.73593 13.0634 7.67005 13.0002C7.58303 12.9169 7.53709 12.8999 7.39857 12.8999C7.2574 12.8999 7.2157 12.916 7.12685 13.0048C6.99202 13.1397 6.96607 13.3157 7.04234 13.578C7.14931 13.946 7.54978 14.24 7.94407 14.24H8.07313L8.08436 14.6635L8.09562 15.087L8.20653 15.1979C8.30197 15.2932 8.34095 15.3087 8.48578 15.3087C8.63061 15.3087 8.66959 15.2932 8.76503 15.1979L8.87594 15.087L8.88717 14.6641L8.8984 14.2411L9.03926 14.2032C9.41014 14.1033 9.70517 13.8563 9.86656 13.5106C9.9473 13.3376 9.96155 13.2636 9.96142 13.0186C9.96128 12.7742 9.94669 12.6987 9.86561 12.523C9.74558 12.2628 9.51348 12.0322 9.24913 11.9105C9.0647 11.8255 8.99855 11.815 8.5458 11.7985L8.04599 11.7803L7.93512 11.6694C7.83968 11.5739 7.82421 11.535 7.82421 11.3902C7.82421 11.2453 7.83968 11.2063 7.93502 11.1109L8.04585 11L8.55621 10.989C8.89083 10.9819 9.08194 10.9908 9.11122 11.0151C9.13575 11.0355 9.16506 11.1098 9.17632 11.1802C9.18918 11.2607 9.23563 11.3454 9.30151 11.4085C9.38853 11.4919 9.43447 11.5089 9.57299 11.5089C9.71416 11.5089 9.75586 11.4928 9.84471 11.404C9.98255 11.2661 10.0072 11.0882 9.92481 10.8248C9.80868 10.4534 9.41934 10.1688 9.02749 10.1688H8.89843L8.8872 9.74526C8.87597 9.32328 8.87556 9.32138 8.771 9.21689C8.65897 9.10496 8.45989 9.05811 8.33311 9.11379ZM16.6451 11.3902L17.4928 12.2383L16.6282 13.1035L15.7635 13.9686L14.9066 13.1122L14.0497 12.2558L14.9062 11.3989C15.3772 10.9276 15.7704 10.542 15.78 10.542C15.7896 10.542 16.1789 10.9237 16.6451 11.3902ZM15.2968 15.2152L15.0176 15.4959L13.7706 14.2492L12.5236 13.0026L12.8027 12.7219L13.0819 12.4413L14.3289 13.6879L15.5759 14.9346L15.2968 15.2152ZM19.5967 15.5287C20.791 16.5607 21.8487 17.483 21.9474 17.5782C22.1533 17.7771 22.212 17.9248 22.1772 18.1566C22.12 18.5381 21.6832 18.7626 21.3276 18.5931C21.242 18.5522 20.6142 17.8515 19.1516 16.1641L17.096 13.7926L17.2076 13.6774C17.3032 13.5788 17.3268 13.5687 17.3723 13.6073C17.4016 13.6321 18.4025 14.4967 19.5967 15.5287ZM11.0472 16.7133C11.0099 16.7297 10.9412 16.7842 10.8946 16.8344C10.8132 16.922 10.8098 16.9434 10.8098 17.3633V17.801L10.9207 17.9119C11.0161 18.0074 11.055 18.0228 11.1999 18.0228C11.3448 18.0228 11.3837 18.0074 11.4792 17.9119L11.5901 17.801V17.3612V16.9215L11.4851 16.8166C11.3731 16.7045 11.1741 16.6576 11.0472 16.7133ZM9.07356 17.3768C8.93117 17.4388 8.84971 17.5698 8.84971 17.737C8.84971 17.8858 8.98901 18.1181 9.25317 18.4098C9.38555 18.5561 9.40478 18.5656 9.56699 18.5656C9.71687 18.5656 9.75443 18.5509 9.85068 18.4547C9.9449 18.3605 9.96159 18.3195 9.96159 18.1822C9.96159 18.0366 9.93994 17.9913 9.7432 17.7257C9.46093 17.3446 9.31841 17.2703 9.07356 17.3768ZM12.9786 17.3803C12.9204 17.409 12.7778 17.5621 12.6563 17.7262C12.4599 17.9913 12.4382 18.0366 12.4382 18.1822C12.4382 18.3195 12.4549 18.3605 12.5491 18.4547C12.6454 18.5509 12.6829 18.5656 12.8328 18.5656C12.995 18.5656 13.0143 18.5561 13.1467 18.4098C13.407 18.1223 13.5501 17.8853 13.5501 17.7418C13.5501 17.5772 13.4582 17.4336 13.3145 17.3736C13.1741 17.3149 13.1085 17.3162 12.9786 17.3803ZM8.87594 19.4288C8.83862 19.4445 8.76992 19.4983 8.72327 19.5485C8.63937 19.6386 8.63835 19.6472 8.62807 20.3298L8.61765 21.0199L8.19605 21.0311L7.77444 21.0423L7.6636 21.1532C7.56827 21.2486 7.5528 21.2876 7.5528 21.4324C7.5528 21.5773 7.56823 21.6162 7.6637 21.7117L7.77461 21.8226H11.1999H14.6252L14.7361 21.7117C14.8316 21.6162 14.847 21.5773 14.847 21.4324C14.847 21.2876 14.8315 21.2486 14.7362 21.1532L14.6254 21.0423L14.2038 21.0311L13.7822 21.0199L13.7717 20.3277L13.7614 19.6355L13.6505 19.5246L13.5396 19.4138L11.2417 19.4071C9.97784 19.4034 8.91326 19.4132 8.87594 19.4288ZM12.9641 20.6182V21.0253H11.1999H9.43572V20.6182V20.2111H11.1999H12.9641V20.6182Z" fill="#93AEC0"/>
<defs>
<linearGradient id="paint0_linear_119_1427" x1="5.57808e-07" y1="1.03614" x2="30" y2="1.03614" gradientUnits="userSpaceOnUse">
<stop stop-color="#F1FAFF"/>
<stop offset="0.972083" stop-color="#E9F1F8"/>
</linearGradient>
</defs>
</svg>
