<svg width="21" height="21" viewBox="0 0 21 21" fill="none" xmlns="http://www.w3.org/2000/svg">
<path d="M1.5928 11.0845C1.17493 11.0845 0.836182 10.7458 0.836182 10.3279V10.3279C0.836182 9.91002 1.17493 9.57127 1.5928 9.57127H5.3759C7.88312 9.57127 9.91563 7.53876 9.91563 5.03155V1.24844C9.91563 0.830573 10.2544 0.491821 10.6722 0.491821V0.491821C11.0901 0.491821 11.4289 0.830572 11.4289 1.24844V5.03154C11.4289 7.53876 13.4614 9.57127 15.9686 9.57127H19.7517C20.1696 9.57127 20.5083 9.91002 20.5083 10.3279V10.3279C20.5083 10.7458 20.1696 11.0845 19.7517 11.0845H15.9686C13.4614 11.0845 11.4289 13.117 11.4289 15.6242V19.4073C11.4289 19.8252 11.0901 20.164 10.6722 20.164V20.164C10.2544 20.164 9.91563 19.8252 9.91563 19.4073V15.6242C9.91563 13.117 7.88312 11.0845 5.37591 11.0845H1.5928Z" fill="#BE4D29"/>
</svg>
