<svg width="30" height="30" viewBox="0 0 30 30" fill="none" xmlns="http://www.w3.org/2000/svg">
<circle cx="15" cy="15" r="15" fill="url(#paint0_linear_119_1430)"/>
<path d="M18.668 10.7555C18.0062 9.62344 17.1039 9 16.125 9H13.5C12.5211 9 11.6188 9.62344 10.957 10.7555C10.2953 11.8875 10 13.2109 10 14.6875C10 16.1641 10.3391 17.5641 10.957 18.6195C11.575 19.675 12.5211 20.375 13.5 20.375H16.125C17.1039 20.375 18.0062 19.7516 18.668 18.6195C19.3297 17.4875 19.625 16.1641 19.625 14.6875C19.625 13.2109 19.2859 11.8109 18.668 10.7555V10.7555ZM18.7391 14.25H16.9891C16.9453 13.3094 16.7648 12.407 16.4586 11.625H18.132C18.4656 12.3578 18.6898 13.2656 18.7391 14.25ZM17.6125 10.75H16.043C15.8578 10.4346 15.6376 10.1411 15.3867 9.875H16.125C16.6719 9.875 17.1859 10.2031 17.6125 10.75V10.75ZM10.875 14.6875C10.875 12.0789 12.0781 9.875 13.5 9.875C14.9219 9.875 16.125 12.0789 16.125 14.6875C16.125 17.2961 14.9219 19.5 13.5 19.5C12.0781 19.5 10.875 17.2961 10.875 14.6875ZM16.125 19.5H15.3867C15.6376 19.2339 15.8578 18.9404 16.043 18.625H17.6125C17.1859 19.1719 16.6719 19.5 16.125 19.5ZM18.132 17.75H16.4586C16.7648 16.968 16.9453 16.0656 16.9891 15.125H18.7391C18.6898 16.1094 18.4656 17.0172 18.132 17.75Z" fill="#93AEC0"/>
<defs>
<linearGradient id="paint0_linear_119_1430" x1="5.57808e-07" y1="1.03614" x2="30" y2="1.03614" gradientUnits="userSpaceOnUse">
<stop stop-color="#F1FAFF"/>
<stop offset="0.972083" stop-color="#E9F1F8"/>
</linearGradient>
</defs>
</svg>
