<svg width="16" height="16" viewBox="0 0 16 16" fill="none" xmlns="http://www.w3.org/2000/svg">
<path d="M9.20085 6.79921C8.56379 6.16241 7.6999 5.80469 6.79915 5.80469C5.8984 5.80469 5.03451 6.16241 4.39745 6.79921L1.99498 9.20091C1.3579 9.83798 1 10.702 1 11.603C1 12.504 1.3579 13.368 1.99498 14.0051C2.63205 14.6422 3.49611 15.0001 4.39706 15.0001C5.29802 15.0001 6.16208 14.6422 6.79915 14.0051L8 12.8042" stroke="#93AEC0" stroke-width="2" stroke-linecap="round" stroke-linejoin="round"/>
<path d="M6.79883 9.20085C7.43589 9.83764 8.29977 10.1954 9.20053 10.1954C10.1013 10.1954 10.9652 9.83764 11.6022 9.20085L14.0047 6.79915C14.6418 6.16208 14.9997 5.29802 14.9997 4.39706C14.9997 3.49611 14.6418 2.63205 14.0047 1.99498C13.3676 1.3579 12.5036 1 11.6026 1C10.7017 1 9.8376 1.3579 9.20053 1.99498L7.99968 3.19583" stroke="#93AEC0" stroke-width="2" stroke-linecap="round" stroke-linejoin="round"/>
</svg>
