<svg width="30" height="30" viewBox="0 0 30 30" fill="none" xmlns="http://www.w3.org/2000/svg">
<path d="M16.2008 13.7992C15.5638 13.1624 14.6999 12.8047 13.7992 12.8047C12.8984 12.8047 12.0345 13.1624 11.3975 13.7992L8.99498 16.2009C8.3579 16.838 8 17.702 8 18.603C8 19.504 8.3579 20.368 8.99498 21.0051C9.63205 21.6422 10.4961 22.0001 11.3971 22.0001C12.298 22.0001 13.1621 21.6422 13.7992 21.0051L15 19.8042" stroke="#009EF7" stroke-width="2" stroke-linecap="round" stroke-linejoin="round"/>
<path d="M13.7988 16.2008C14.4359 16.8376 15.2998 17.1954 16.2005 17.1954C17.1013 17.1954 17.9652 16.8376 18.6022 16.2008L21.0047 13.7992C21.6418 13.1621 21.9997 12.298 21.9997 11.3971C21.9997 10.4961 21.6418 9.63205 21.0047 8.99498C20.3676 8.3579 19.5036 8 18.6026 8C17.7017 8 16.8376 8.3579 16.2005 8.99498L14.9997 10.1958" stroke="#009EF7" stroke-width="2" stroke-linecap="round" stroke-linejoin="round"/>
</svg>
