<svg width="30" height="30" viewBox="0 0 30 30" fill="none" xmlns="http://www.w3.org/2000/svg">
<rect x="5.06066" y="15" width="14.5" height="14.5" rx="1.25" transform="rotate(-45 5.06066 15)" stroke="#FF9A00" stroke-width="1.5"/>
<path d="M13.2397 12.4453V16H12.3853L11.1279 13.7881V16H10.271V12.4453H11.1279L12.3853 14.6572V12.4453H13.2397ZM16.228 15.3408V16H14.3335V15.3408H16.228ZM14.6387 12.4453V16H13.7817V12.4453H14.6387ZM15.9839 13.8564V14.4937H14.3335V13.8564H15.9839ZM16.2354 12.4453V13.1069H14.3335V12.4453H16.2354ZM17.3999 15.6777L18.1079 12.4453H18.5303L18.7598 12.7212L18.0054 16H17.5391L17.3999 15.6777ZM17.2119 12.4453L17.8101 15.7021L17.6562 16H17.1167L16.3623 12.4453H17.2119ZM19.1479 15.6851L19.7412 12.4453H20.5884L19.834 16H19.2969L19.1479 15.6851ZM18.8354 12.4453L19.5605 15.6973L19.4141 16H18.9478L18.1763 12.7163L18.4155 12.4453H18.8354Z" fill="black"/>
<path d="M14 20H17M12.5 18H18.5" stroke="#FF9A00" stroke-linecap="round" stroke-linejoin="round"/>
<circle cx="15.5" cy="9.5" r="1.1" stroke="#FF9A00" stroke-width="0.8"/>
</svg>
