<svg width="30" height="30" viewBox="0 0 30 30" fill="none" xmlns="http://www.w3.org/2000/svg">
<mask id="mask0_716_843" style="mask-type:alpha" maskUnits="userSpaceOnUse" x="7" y="7" width="16" height="16">
<rect x="7.75" y="7.75" width="14.5" height="14.5" rx="1.25" stroke="#7EB7DD" stroke-width="1.5"/>
</mask>
<g mask="url(#mask0_716_843)">
<path d="M15 15.5V6H6.5V24.5H23.5V15.5H15Z" fill="#93AEC0"/>
</g>
<path d="M17.8008 7.05005H17.0508V8.55005H17.8008V7.05005ZM22.3008 7.80005H23.0508C23.0508 7.38584 22.715 7.05005 22.3008 7.05005V7.80005ZM21.5508 12.3V13.05H23.0508V12.3H21.5508ZM14.7525 14.7883L14.2408 15.3366L15.3373 16.3601L15.8491 15.8118L14.7525 14.7883ZM17.8008 8.55005H22.3008V7.05005H17.8008V8.55005ZM21.5508 7.80005V12.3H23.0508V7.80005H21.5508ZM21.7525 7.28831L14.7525 14.7883L15.8491 15.8118L22.8491 8.31179L21.7525 7.28831Z" fill="#93AEC0"/>
</svg>
