<svg width="30" height="30" viewBox="0 0 30 30" fill="none" xmlns="http://www.w3.org/2000/svg">
<path d="M13.8792 7.12779C14.5041 6.52324 15.4959 6.52324 16.1208 7.12779C16.8107 7.7952 17.77 8.10688 18.7204 7.97245C19.5813 7.85068 20.3837 8.43363 20.5339 9.29005C20.6998 10.2355 21.2926 11.0515 22.1406 11.5014C22.9086 11.9089 23.2151 12.8522 22.8333 13.6333C22.4117 14.4957 22.4117 15.5043 22.8333 16.3667C23.2151 17.1478 22.9086 18.0911 22.1406 18.4986C21.2926 18.9485 20.6998 19.7645 20.5339 20.71C20.3837 21.5664 19.5813 22.1493 18.7204 22.0275C17.77 21.8931 16.8107 22.2048 16.1208 22.8722C15.4959 23.4768 14.5041 23.4768 13.8792 22.8722C13.1893 22.2048 12.23 21.8931 11.2796 22.0275C10.4187 22.1493 9.6163 21.5664 9.46607 20.7099C9.30023 19.7645 8.70736 18.9485 7.85944 18.4986C7.09136 18.0911 6.78488 17.1478 7.16674 16.3667C7.58829 15.5043 7.58829 14.4957 7.16674 13.6333C6.78488 12.8522 7.09136 11.9089 7.85944 11.5014C8.70736 11.0515 9.30023 10.2355 9.46607 9.29005C9.6163 8.43363 10.4187 7.85068 11.2796 7.97245C12.23 8.10688 13.1893 7.7952 13.8792 7.12779Z" stroke="#7EB7DD" stroke-width="1.5"/>
<path d="M12.4685 14.9143C12.1451 14.6556 11.6731 14.708 11.4143 15.0315C11.1556 15.3549 11.208 15.8269 11.5315 16.0857L12.4685 14.9143ZM14.5 17.5L14.0315 18.0857C14.3549 18.3444 14.8269 18.292 15.0857 17.9685L14.5 17.5ZM19.0857 12.9685C19.3444 12.6451 19.292 12.1731 18.9685 11.9143C18.6451 11.6556 18.1731 11.708 17.9143 12.0315L19.0857 12.9685ZM11.5315 16.0857L14.0315 18.0857L14.9685 16.9143L12.4685 14.9143L11.5315 16.0857ZM15.0857 17.9685L19.0857 12.9685L17.9143 12.0315L13.9143 17.0315L15.0857 17.9685Z" fill="#7EB7DD"/>
</svg>
