<svg width="12" height="12" viewBox="0 0 12 12" fill="none" xmlns="http://www.w3.org/2000/svg">
<path d="M5.59149 4.1775C4.58798 4.1775 3.76903 4.99645 3.76903 5.99996C3.76903 7.00348 4.58798 7.82242 5.59149 7.82242C6.59501 7.82242 7.41395 7.00348 7.41395 5.99996C7.41395 4.99645 6.59501 4.1775 5.59149 4.1775ZM11.0575 5.99996C11.0575 5.24528 11.0643 4.49743 11.022 3.74411C10.9796 2.86911 10.78 2.09254 10.1401 1.4527C9.49891 0.81149 8.72372 0.613248 7.84872 0.570866C7.09403 0.528483 6.34618 0.535319 5.59286 0.535319C4.83817 0.535319 4.09032 0.528483 3.337 0.570866C2.462 0.613248 1.68544 0.812858 1.0456 1.4527C0.404386 2.09391 0.206144 2.86911 0.163761 3.74411C0.121378 4.49879 0.128214 5.24664 0.128214 5.99996C0.128214 6.75328 0.121378 7.5025 0.163761 8.25582C0.206144 9.13082 0.405753 9.90738 1.0456 10.5472C1.68681 11.1884 2.462 11.3867 3.337 11.4291C4.09169 11.4714 4.83954 11.4646 5.59286 11.4646C6.34755 11.4646 7.0954 11.4714 7.84872 11.4291C8.72372 11.3867 9.50028 11.1871 10.1401 10.5472C10.7813 9.90602 10.9796 9.13082 11.022 8.25582C11.0657 7.5025 11.0575 6.75465 11.0575 5.99996ZM5.59149 8.80406C4.03973 8.80406 2.78739 7.55172 2.78739 5.99996C2.78739 4.44821 4.03973 3.19586 5.59149 3.19586C7.14325 3.19586 8.39559 4.44821 8.39559 5.99996C8.39559 7.55172 7.14325 8.80406 5.59149 8.80406ZM8.51044 3.7359C8.14813 3.7359 7.85555 3.44332 7.85555 3.08102C7.85555 2.71872 8.14813 2.42614 8.51044 2.42614C8.87274 2.42614 9.16532 2.71872 9.16532 3.08102C9.16543 3.16705 9.14856 3.25226 9.11569 3.33176C9.08282 3.41126 9.03458 3.4835 8.97375 3.54433C8.91291 3.60517 8.84068 3.6534 8.76118 3.68627C8.68167 3.71915 8.59647 3.73601 8.51044 3.7359Z" fill="url(#paint0_linear_118_631)"/>
<defs>
<linearGradient id="paint0_linear_118_631" x1="0.301304" y1="1.15193" x2="10.8703" y2="11.12" gradientUnits="userSpaceOnUse">
<stop stop-color="#FDD8A0"/>
<stop offset="1" stop-color="#FC657C"/>
</linearGradient>
</defs>
</svg>
