<svg width="20" height="20" viewBox="0 0 20 20" fill="none" xmlns="http://www.w3.org/2000/svg">
<path d="M15 6.66671H16.6667C16.8877 6.66671 17.0996 6.7545 17.2559 6.91079C17.4122 7.06707 17.5 7.27903 17.5 7.50004V17.5C17.5 17.7211 17.4122 17.933 17.2559 18.0893C17.0996 18.2456 16.8877 18.3334 16.6667 18.3334H3.33333C3.11232 18.3334 2.90036 18.2456 2.74408 18.0893C2.5878 17.933 2.5 17.7211 2.5 17.5V7.50004C2.5 7.27903 2.5878 7.06707 2.74408 6.91079C2.90036 6.7545 3.11232 6.66671 3.33333 6.66671H5V5.83337C5 4.50729 5.52678 3.23552 6.46447 2.29784C7.40215 1.36016 8.67392 0.833374 10 0.833374C11.3261 0.833374 12.5979 1.36016 13.5355 2.29784C14.4732 3.23552 15 4.50729 15 5.83337V6.66671ZM13.3333 6.66671V5.83337C13.3333 4.94932 12.9821 4.10147 12.357 3.47635C11.7319 2.85123 10.8841 2.50004 10 2.50004C9.11594 2.50004 8.2681 2.85123 7.64298 3.47635C7.01786 4.10147 6.66667 4.94932 6.66667 5.83337V6.66671H13.3333ZM9.16667 11.6667V13.3334H10.8333V11.6667H9.16667ZM5.83333 11.6667V13.3334H7.5V11.6667H5.83333ZM12.5 11.6667V13.3334H14.1667V11.6667H12.5Z" fill="url(#paint0_linear_136_578)"/>
<defs>
<linearGradient id="paint0_linear_136_578" x1="2.7381" y1="1.82128" x2="19.3125" y2="15.2199" gradientUnits="userSpaceOnUse">
<stop stop-color="#FDD8A0"/>
<stop offset="1" stop-color="#FC657C"/>
</linearGradient>
</defs>
</svg>
