<svg width="48" height="48" viewBox="0 0 48 48" fill="none" xmlns="http://www.w3.org/2000/svg">
<path d="M33.9794 2.46239C34.2814 2.56266 34.5313 2.77879 34.6739 3.06324C34.8166 3.34769 34.8405 3.67716 34.7402 3.97919L33.5402 7.57919C33.4397 7.88153 33.2231 8.13155 32.9382 8.27422C32.6533 8.4169 32.3234 8.44056 32.021 8.33999C31.7187 8.23942 31.4687 8.02286 31.326 7.73795C31.1833 7.45305 31.1597 7.12313 31.2602 6.82079L32.4602 3.22079C32.5101 3.07119 32.589 2.93289 32.6924 2.81379C32.7957 2.6947 32.9216 2.59714 33.0626 2.52671C33.2037 2.45627 33.3573 2.41434 33.5146 2.4033C33.6719 2.39227 33.8299 2.41234 33.9794 2.46239ZM42.8522 6.84959C42.9638 6.73802 43.0523 6.60556 43.1127 6.45979C43.1731 6.31401 43.2042 6.15777 43.2042 5.99999C43.2042 5.8422 43.1731 5.68596 43.1127 5.54019C43.0523 5.39441 42.9638 5.26196 42.8522 5.15039C42.7407 5.03882 42.6082 4.95031 42.4624 4.88993C42.3167 4.82955 42.1604 4.79847 42.0026 4.79847C41.8448 4.79847 41.6886 4.82955 41.5428 4.88993C41.3971 4.95031 41.2646 5.03882 41.153 5.15039L36.353 9.95039C36.2415 10.0618 36.1529 10.1941 36.0925 10.3397C36.032 10.4854 36.0009 10.6415 36.0008 10.7991C36.0005 11.1176 36.1268 11.4231 36.3518 11.6484C36.5768 11.8737 36.8822 12.0004 37.2006 12.0007C37.519 12.0009 37.8245 11.8746 38.0498 11.6496L42.8498 6.84959H42.8522ZM18.257 7.54799C18.5921 6.84312 19.0939 6.23057 19.7191 5.76342C20.3443 5.29627 21.074 4.98861 21.8449 4.8671C22.6158 4.74559 23.4047 4.81388 24.1433 5.06608C24.8819 5.31827 25.5478 5.74675 26.0834 6.31439L41.8922 23.0664C42.4198 23.6253 42.8054 24.3028 43.0167 25.0417C43.2279 25.7807 43.2586 26.5596 43.1062 27.3129C42.9538 28.0662 42.6228 28.7719 42.1409 29.3707C41.659 29.9694 41.0404 30.4437 40.337 30.7536L30.8882 34.92C31.2385 36.1692 31.295 37.4825 31.0533 38.7571C30.8116 40.0317 30.2783 41.2332 29.495 42.2674C28.7118 43.3017 27.6999 44.1407 26.5384 44.7188C25.377 45.297 24.0976 45.5986 22.8002 45.6C21.3704 45.6008 19.964 45.2363 18.7144 44.5412C17.4649 43.8461 16.4136 42.8433 15.6602 41.628L12.7802 42.8952C12.1186 43.1869 11.3845 43.2727 10.6735 43.1412C9.96244 43.0098 9.30746 42.6673 8.79384 42.1584L5.86104 39.252C5.33073 38.7267 4.9768 38.0496 4.84824 37.3143C4.71968 36.5791 4.82283 35.822 5.14344 35.148L18.257 7.55039V7.54799ZM17.8874 40.644C18.684 41.7811 19.8502 42.6068 21.1874 42.9804C22.5246 43.3539 23.9499 43.2522 25.2205 42.6925C26.491 42.1328 27.5282 41.1498 28.1551 39.911C28.7821 38.6723 28.96 37.2545 28.6586 35.8992L17.8874 40.644ZM40.8002 14.4C40.482 14.4 40.1768 14.5264 39.9517 14.7515C39.7267 14.9765 39.6002 15.2817 39.6002 15.6C39.6002 15.9182 39.7267 16.2235 39.9517 16.4485C40.1768 16.6736 40.482 16.8 40.8002 16.8H44.4002C44.7185 16.8 45.0237 16.6736 45.2488 16.4485C45.4738 16.2235 45.6002 15.9182 45.6002 15.6C45.6002 15.2817 45.4738 14.9765 45.2488 14.7515C45.0237 14.5264 44.7185 14.4 44.4002 14.4H40.8002Z" fill="white"/>
</svg>
