<svg width="30" height="32" viewBox="0 0 30 32" fill="none" xmlns="http://www.w3.org/2000/svg">
<path d="M20.9861 0.923668C21.1975 0.993861 21.3724 1.14515 21.4723 1.34427C21.5722 1.54338 21.5889 1.77401 21.5187 1.98543L20.6787 4.50543C20.6083 4.71707 20.4567 4.89208 20.2573 4.99195C20.0578 5.09183 19.8269 5.10839 19.6153 5.03799C19.4036 4.96759 19.2286 4.816 19.1287 4.61656C19.0289 4.41713 19.0123 4.18619 19.0827 3.97455L19.9227 1.45455C19.9576 1.34983 20.0128 1.25302 20.0852 1.16965C20.1575 1.08628 20.2456 1.018 20.3444 0.968693C20.4432 0.919388 20.5507 0.890034 20.6608 0.882309C20.7709 0.874583 20.8815 0.888637 20.9861 0.923668ZM27.1971 3.99471C27.2752 3.91661 27.3372 3.82389 27.3794 3.72185C27.4217 3.61981 27.4434 3.51044 27.4434 3.39999C27.4434 3.28954 27.4217 3.18017 27.3794 3.07813C27.3372 2.97609 27.2752 2.88337 27.1971 2.80527C27.119 2.72717 27.0263 2.66522 26.9242 2.62295C26.8222 2.58068 26.7128 2.55893 26.6024 2.55893C26.4919 2.55893 26.3826 2.58068 26.2805 2.62295C26.1785 2.66522 26.0858 2.72717 26.0077 2.80527L22.6477 6.16527C22.5696 6.24326 22.5076 6.33587 22.4653 6.43781C22.423 6.53975 22.4012 6.64902 22.4011 6.75939C22.4009 6.9823 22.4893 7.19614 22.6468 7.35387C22.8043 7.5116 23.018 7.6003 23.2409 7.60046C23.4639 7.60061 23.6777 7.51222 23.8354 7.35471L27.1954 3.99471H27.1971ZM9.98046 4.48359C10.215 3.99018 10.5663 3.5614 11.0039 3.23439C11.4415 2.90739 11.9523 2.69203 12.492 2.60697C13.0316 2.52191 13.5839 2.56972 14.1009 2.74625C14.6179 2.92278 15.084 3.22272 15.4589 3.62007L26.5251 15.3465C26.8944 15.7377 27.1643 16.2119 27.3122 16.7292C27.4601 17.2465 27.4816 17.7917 27.3749 18.319C27.2682 18.8464 27.0365 19.3403 26.6991 19.7595C26.3618 20.1786 25.9288 20.5106 25.4365 20.7275L18.8223 23.644C19.0675 24.5184 19.107 25.4377 18.9378 26.33C18.7686 27.2222 18.3953 28.0632 17.847 28.7872C17.2988 29.5112 16.5904 30.0985 15.7774 30.5032C14.9645 30.9079 14.0689 31.119 13.1607 31.12C12.1598 31.1205 11.1753 30.8654 10.3006 30.3788C9.42596 29.8922 8.69006 29.1903 8.1627 28.3396L6.1467 29.2266C5.68358 29.4308 5.16969 29.4909 4.67197 29.3989C4.17424 29.3069 3.71576 29.0671 3.35622 28.7109L1.30326 26.6764C0.932047 26.3087 0.684298 25.8347 0.594304 25.32C0.50431 24.8054 0.576521 24.2754 0.800943 23.8036L9.98046 4.48527V4.48359ZM9.72174 27.6508C10.2793 28.4468 11.0957 29.0248 12.0317 29.2863C12.9677 29.5477 13.9655 29.4765 14.8549 29.0847C15.7443 28.6929 16.4702 28.0048 16.9091 27.1377C17.348 26.2706 17.4725 25.2781 17.2616 24.3294L9.72174 27.6508ZM25.7607 9.27999C25.5379 9.27999 25.3243 9.36849 25.1667 9.52602C25.0092 9.68355 24.9207 9.89721 24.9207 10.12C24.9207 10.3428 25.0092 10.5564 25.1667 10.714C25.3243 10.8715 25.5379 10.96 25.7607 10.96H28.2807C28.5035 10.96 28.7171 10.8715 28.8747 10.714C29.0322 10.5564 29.1207 10.3428 29.1207 10.12C29.1207 9.89721 29.0322 9.68355 28.8747 9.52602C28.7171 9.36849 28.5035 9.27999 28.2807 9.27999H25.7607Z" fill="#FC657C"/>
</svg>
