<svg width="30" height="30" viewBox="0 0 30 30" fill="none" xmlns="http://www.w3.org/2000/svg">
<circle cx="15" cy="15" r="15" fill="url(#paint0_linear_81_231)"/>
<path d="M15 5C20.523 5 25 9.477 25 15C25 17.136 24.33 19.116 23.189 20.741L20 15H23C22.9998 13.1562 22.3628 11.3691 21.1967 9.94089C20.0305 8.51272 18.4069 7.53119 16.6003 7.16236C14.7938 6.79352 12.9153 7.06002 11.2827 7.91677C9.65002 8.77351 8.36342 10.1679 7.64052 11.8641C6.91762 13.5603 6.80281 15.4541 7.31549 17.2251C7.82818 18.9962 8.93689 20.5358 10.4541 21.5836C11.9713 22.6313 13.8038 23.1228 15.6416 22.9749C17.4795 22.827 19.2099 22.0488 20.54 20.772L21.538 22.567C19.7232 24.1396 17.4014 25.0036 15 25C9.477 25 5 20.523 5 15C5 9.477 9.477 5 15 5ZM15 10C15.7956 10 16.5587 10.3161 17.1213 10.8787C17.6839 11.4413 18 12.2044 18 13V14H19V19H11V14H12V13C12 12.2044 12.3161 11.4413 12.8787 10.8787C13.4413 10.3161 14.2044 10 15 10V10ZM15 12C14.7551 12 14.5187 12.09 14.3356 12.2527C14.1526 12.4155 14.0357 12.6397 14.007 12.883L14 13V14H16V13C16 12.7551 15.91 12.5187 15.7473 12.3356C15.5845 12.1526 15.3603 12.0357 15.117 12.007L15 12Z" fill="#A4B2BB"/>
<defs>
<linearGradient id="paint0_linear_81_231" x1="5.57808e-07" y1="1.03614" x2="30" y2="1.03614" gradientUnits="userSpaceOnUse">
<stop stop-color="#F1FAFF"/>
<stop offset="0.972083" stop-color="#E9F1F8"/>
</linearGradient>
</defs>
</svg>
