<svg width="20" height="20" viewBox="0 0 20 20" fill="none" xmlns="http://www.w3.org/2000/svg">
<path d="M10 0C15.523 0 20 4.477 20 10C20 12.136 19.33 14.116 18.189 15.741L15 10H18C17.9998 8.15621 17.3628 6.36906 16.1967 4.94089C15.0305 3.51272 13.4069 2.53119 11.6003 2.16236C9.79381 1.79352 7.91533 2.06002 6.28268 2.91677C4.65002 3.77351 3.36342 5.16791 2.64052 6.86408C1.91762 8.56025 1.80281 10.4541 2.31549 12.2251C2.82818 13.9962 3.93689 15.5358 5.45408 16.5836C6.97127 17.6313 8.80379 18.1228 10.6416 17.9749C12.4795 17.827 14.2099 17.0488 15.54 15.772L16.538 17.567C14.7232 19.1396 12.4014 20.0036 10 20C4.477 20 0 15.523 0 10C0 4.477 4.477 0 10 0ZM10 5C10.7956 5 11.5587 5.31607 12.1213 5.87868C12.6839 6.44129 13 7.20435 13 8V9H14V14H6V9H7V8C7 7.20435 7.31607 6.44129 7.87868 5.87868C8.44129 5.31607 9.20435 5 10 5ZM10 7C9.75507 7.00003 9.51866 7.08996 9.33563 7.25272C9.15259 7.41547 9.03566 7.63975 9.007 7.883L9 8V9H11V8C11 7.75507 10.91 7.51866 10.7473 7.33563C10.5845 7.15259 10.3603 7.03566 10.117 7.007L10 7Z" fill="#A4B2BB"/>
</svg>
