<svg width="225" height="154" viewBox="0 0 225 154" fill="none" xmlns="http://www.w3.org/2000/svg">
<g clip-path="url(#clip0_713_614)">
<path fill-rule="evenodd" clip-rule="evenodd" d="M11.2274 7.18796C8.69134 7.04337 7.13453 9.91912 8.64205 11.9635L105.973 143.958C106.427 144.575 107.052 144.954 107.717 145.103C116.833 148.966 139.131 124.407 157.983 89.5824C177.119 54.2358 185.458 21.6989 176.611 16.9092C175.578 16.3503 174.357 16.1939 172.976 16.4099L11.2274 7.18796Z" fill="url(#paint0_linear_713_614)"/>
<ellipse cx="141.995" cy="80.8725" rx="72.7772" ry="18.2169" transform="rotate(-61.5707 141.995 80.8725)" fill="url(#paint1_linear_713_614)"/>
<ellipse opacity="0.5" cx="78.9698" cy="31.4602" rx="51.0959" ry="12.9271" transform="rotate(13.7939 78.9698 31.4602)" fill="url(#paint2_radial_713_614)"/>
<g filter="url(#filter0_b_713_614)">
<rect x="157.814" y="127.807" width="53.8148" height="53.8148" transform="rotate(-120.571 157.814 127.807)" fill="white" fill-opacity="0.15"/>
</g>
</g>
<defs>
<filter id="filter0_b_713_614" x="105.443" y="29.1022" width="123.705" height="123.705" filterUnits="userSpaceOnUse" color-interpolation-filters="sRGB">
<feFlood flood-opacity="0" result="BackgroundImageFix"/>
<feGaussianBlur in="BackgroundImage" stdDeviation="12.5"/>
<feComposite in2="SourceAlpha" operator="in" result="effect1_backgroundBlur_713_614"/>
<feBlend mode="normal" in="SourceGraphic" in2="effect1_backgroundBlur_713_614" result="shape"/>
</filter>
<linearGradient id="paint0_linear_713_614" x1="4.25343" y1="16.4484" x2="110.13" y2="73.7658" gradientUnits="userSpaceOnUse">
<stop stop-color="#B7CBCB"/>
<stop offset="0.414757" stop-color="#37FFFE"/>
<stop offset="1" stop-color="#1CA7E6"/>
</linearGradient>
<linearGradient id="paint1_linear_713_614" x1="133.174" y1="62.6557" x2="133.174" y2="88.4572" gradientUnits="userSpaceOnUse">
<stop stop-color="#64C5FF"/>
<stop offset="1" stop-color="#1CA7E6" stop-opacity="0"/>
</linearGradient>
<radialGradient id="paint2_radial_713_614" cx="0" cy="0" r="1" gradientUnits="userSpaceOnUse" gradientTransform="translate(78.9698 31.4602) rotate(90) scale(12.9271 51.0959)">
<stop stop-color="#7FFFFE"/>
<stop offset="1" stop-color="#ECF5FB" stop-opacity="0"/>
</radialGradient>
<clipPath id="clip0_713_614">
<rect width="225" height="154" fill="white"/>
</clipPath>
</defs>
</svg>
