<svg width="380" height="855" viewBox="0 0 380 855" fill="none" xmlns="http://www.w3.org/2000/svg">
<g clip-path="url(#clip0_713_534)">
<g filter="url(#filter0_f_713_534)">
<path fill-rule="evenodd" clip-rule="evenodd" d="M-363.78 791.682C-364.3 794.168 -361.687 796.135 -359.442 794.948L321.317 435.177C321.855 434.893 322.261 434.48 322.529 434.004C324.523 432.633 326.232 431.014 327.643 429.141C354.974 392.842 259.571 274.898 114.554 165.707C-30.4631 56.5165 -170.179 -2.57376 -197.511 33.7255C-198.389 34.8915 -199.14 36.1416 -199.767 37.473L-201.426 36.2241C-203.182 34.9018 -205.717 35.8549 -206.167 38.0066L-363.78 791.682Z" fill="url(#paint0_linear_713_534)"/>
<ellipse cx="68.2132" cy="232.182" rx="324.63" ry="81.2582" transform="rotate(-143.022 68.2132 232.182)" fill="url(#paint1_linear_713_534)"/>
</g>
</g>
<defs>
<filter id="filter0_f_713_534" x="-388.848" y="-1.9696" width="746.162" height="822.273" filterUnits="userSpaceOnUse" color-interpolation-filters="sRGB">
<feFlood flood-opacity="0" result="BackgroundImageFix"/>
<feBlend mode="normal" in="SourceGraphic" in2="BackgroundImageFix" result="shape"/>
<feGaussianBlur stdDeviation="12.5" result="effect1_foregroundBlur_713_534"/>
</filter>
<linearGradient id="paint0_linear_713_534" x1="-330.65" y1="818.786" x2="-1.63934" y2="381.825" gradientUnits="userSpaceOnUse">
<stop stop-color="#B7CBCB"/>
<stop offset="0.414757" stop-color="#37FFFE"/>
<stop offset="1" stop-color="#1CA7E6"/>
</linearGradient>
<linearGradient id="paint1_linear_713_534" x1="28.8622" y1="150.924" x2="28.8622" y2="266.015" gradientUnits="userSpaceOnUse">
<stop stop-color="#64C5FF"/>
<stop offset="1" stop-color="#1CA7E6" stop-opacity="0"/>
</linearGradient>
<clipPath id="clip0_713_534">
<rect width="380" height="855" fill="white"/>
</clipPath>
</defs>
</svg>
