<svg width="30" height="30" viewBox="0 0 30 30" fill="none" xmlns="http://www.w3.org/2000/svg">
<circle cx="15" cy="15" r="15" fill="url(#paint0_linear_732_2622)"/>
<path d="M13.842 20.684C15.36 20.6837 16.8343 20.1755 18.0301 19.2403L21.7898 23L22.9991 21.7907L19.2395 18.031C20.1751 16.8351 20.6836 15.3604 20.684 13.842C20.684 10.0695 17.6145 7 13.842 7C10.0695 7 7 10.0695 7 13.842C7 17.6145 10.0695 20.684 13.842 20.684ZM13.842 8.7105C16.672 8.7105 18.9735 11.012 18.9735 13.842C18.9735 16.672 16.672 18.9735 13.842 18.9735C11.012 18.9735 8.7105 16.672 8.7105 13.842C8.7105 11.012 11.012 8.7105 13.842 8.7105Z" fill="#93AEC0"/>
<defs>
<linearGradient id="paint0_linear_732_2622" x1="5.57808e-07" y1="1.03614" x2="30" y2="1.03614" gradientUnits="userSpaceOnUse">
<stop stop-color="#F1FAFF"/>
<stop offset="0.972083" stop-color="#E9F1F8"/>
</linearGradient>
</defs>
</svg>
