<svg width="32" height="31" viewBox="0 0 32 31" fill="none" xmlns="http://www.w3.org/2000/svg">
<path d="M11.713 29.836C9.23204 29.0953 6.98514 27.7248 5.191 25.858C5.76826 25.1733 6.1281 24.332 6.22449 23.4417C6.32088 22.5513 6.14943 21.6525 5.73208 20.8602C5.31473 20.0678 4.67046 19.418 3.88172 18.9939C3.09297 18.5698 2.19562 18.3907 1.3045 18.4795C1.10149 17.4851 0.999472 16.4727 1 15.4577C1 13.8902 1.24 12.3782 1.687 10.9577H1.75C2.51482 10.958 3.26708 10.7633 3.93575 10.3921C4.60442 10.0208 5.16744 9.48527 5.57165 8.83599C5.97585 8.18671 6.2079 7.44512 6.24589 6.68125C6.28388 5.91738 6.12654 5.15643 5.78875 4.47025C7.54719 2.83287 9.67379 1.64262 11.989 1C12.3658 1.7398 12.9399 2.36095 13.6478 2.79471C14.3557 3.22848 15.1698 3.45795 16 3.45775C16.8302 3.45795 17.6443 3.22848 18.3522 2.79471C19.0601 2.36095 19.6342 1.7398 20.011 1C22.3262 1.64262 24.4528 2.83287 26.2112 4.47025C25.871 5.16123 25.7138 5.92798 25.7547 6.69711C25.7956 7.46624 26.0332 8.21201 26.4448 8.86302C26.8564 9.51403 27.4282 10.0485 28.1055 10.4153C28.7828 10.782 29.5429 10.9688 30.313 10.9577C30.7697 12.414 31.0014 13.9315 31 15.4577C31 16.4927 30.895 17.5037 30.6955 18.4795C29.8044 18.3907 28.907 18.5698 28.1183 18.9939C27.3295 19.418 26.6853 20.0678 26.2679 20.8602C25.8506 21.6525 25.6791 22.5513 25.7755 23.4417C25.8719 24.332 26.2317 25.1733 26.809 25.858C25.0149 27.7248 22.768 29.0953 20.287 29.836C19.9957 28.928 19.4235 28.1359 18.6531 27.5739C17.8826 27.012 16.9536 26.7092 16 26.7092C15.0464 26.7092 14.1174 27.012 13.3469 27.5739C12.5765 28.1359 12.0043 28.928 11.713 29.836Z" stroke="white" stroke-width="2" stroke-linejoin="round"/>
<path d="M16 20.7078C16.6894 20.7078 17.3721 20.572 18.0091 20.3081C18.646 20.0443 19.2248 19.6576 19.7123 19.1701C20.1998 18.6826 20.5865 18.1038 20.8504 17.4668C21.1142 16.8299 21.25 16.1472 21.25 15.4578C21.25 14.7683 21.1142 14.0856 20.8504 13.4487C20.5865 12.8117 20.1998 12.233 19.7123 11.7455C19.2248 11.2579 18.646 10.8712 18.0091 10.6074C17.3721 10.3436 16.6894 10.2078 16 10.2078C14.6076 10.2078 13.2723 10.7609 12.2877 11.7455C11.3031 12.73 10.75 14.0654 10.75 15.4578C10.75 16.8501 11.3031 18.1855 12.2877 19.1701C13.2723 20.1546 14.6076 20.7078 16 20.7078V20.7078Z" stroke="white" stroke-width="2" stroke-linejoin="round"/>
</svg>
