<svg width="30" height="30" viewBox="0 0 30 30" fill="none" xmlns="http://www.w3.org/2000/svg">
<circle cx="15" cy="15" r="15" fill="url(#paint0_linear_119_1424)"/>
<path fill-rule="evenodd" clip-rule="evenodd" d="M14.5534 8.0462C14.0746 8.15005 13.9986 8.20591 12.4399 9.5992C11.6468 10.3082 11.0008 10.8923 11.0043 10.8971C11.0079 10.902 11.2581 10.888 11.5603 10.8661C12.071 10.8289 12.1167 10.8203 12.2104 10.7428C12.2658 10.697 12.7497 10.2648 13.2856 9.78247C13.9823 9.15548 14.309 8.88304 14.4319 8.82675C14.7409 8.68535 15.192 8.67133 15.5113 8.79328C15.5898 8.82326 16.1522 9.19399 16.7611 9.61718C17.8373 10.3651 17.8719 10.3861 17.999 10.3691C18.0709 10.3594 18.2955 10.3417 18.4981 10.3296C18.7008 10.3176 18.8736 10.2964 18.8821 10.2826C18.9058 10.2443 16.1206 8.30207 15.8815 8.19022C15.4848 8.00456 14.9918 7.95112 14.5534 8.0462ZM14.7941 9.08749C14.4643 9.23112 14.3864 9.66951 14.6448 9.92789C14.8568 10.1399 15.1595 10.1399 15.3716 9.92789C15.7773 9.52219 15.3209 8.85804 14.7941 9.08749ZM19.1757 11.0209C18.0611 11.1002 15.4429 11.2834 13.3575 11.4281C11.2721 11.5729 9.24229 11.714 8.84678 11.7417C8.45128 11.7694 8.05234 11.8129 7.96026 11.8383C7.56675 11.9471 7.19089 12.32 7.06544 12.7262C7.00177 12.9323 7 13.0291 7 16.3024C7 19.6165 7.00101 19.6697 7.06756 19.8672C7.23704 20.3703 7.68893 20.7477 8.18769 20.8027C8.30416 20.8156 8.8305 20.7954 9.43514 20.7548C10.0104 20.7163 10.8415 20.6606 11.2819 20.6312C12.2703 20.5651 13.3409 20.4917 13.9459 20.4485C14.1975 20.4306 16.0435 20.3059 18.048 20.1715C20.0525 20.037 21.7802 19.9108 21.8874 19.8909C22.3203 19.8105 22.6937 19.5227 22.8925 19.1162L23 18.8965V15.399V11.9016L22.8959 11.6818C22.7513 11.3765 22.5378 11.159 22.2366 11.0101C21.9966 10.8915 21.98 10.8881 21.5962 10.8826C21.3795 10.8794 20.2903 10.9417 19.1757 11.0209ZM19.6127 13.6324C20.1791 13.7832 20.6576 14.2396 20.8283 14.792C20.9301 15.1212 20.9801 16.0191 20.9146 16.3404C20.7869 16.9664 20.3481 17.4688 19.7545 17.6685C19.4687 17.7647 18.6159 17.8211 18.4563 17.7544C18.2565 17.6709 18.2574 17.6764 18.1481 15.7561C18.093 14.7867 18.0479 13.9606 18.0479 13.9205C18.048 13.8803 18.0904 13.8 18.1422 13.742C18.2186 13.6565 18.2698 13.6324 18.4119 13.6153C18.752 13.5742 19.4304 13.5839 19.6127 13.6324ZM15.8537 13.8642C15.9254 13.9245 15.9574 13.985 15.9704 14.0848C15.9802 14.1604 16.0252 14.8977 16.0703 15.7232C16.1155 16.5488 16.156 17.2268 16.1605 17.2301C16.1649 17.2333 16.497 17.2164 16.8985 17.1924C17.7116 17.1439 17.7695 17.1528 17.8677 17.3428C17.9729 17.5462 17.8772 17.7763 17.6654 17.8291C17.5507 17.8577 16.2102 17.9377 15.845 17.9377C15.6254 17.9377 15.4955 17.8131 15.476 17.5839C15.4175 16.8948 15.2801 14.0519 15.3025 13.9931C15.3823 13.7833 15.6759 13.7145 15.8537 13.8642ZM13.8407 14.0522C14.2204 14.2398 14.5017 14.5917 14.5838 14.9815C14.6386 15.2416 14.7076 16.7 14.6751 16.9105C14.5596 17.6584 13.8253 18.1924 13.0886 18.0641C12.5038 17.9622 12.0506 17.5229 11.9408 16.9516C11.8913 16.694 11.8244 15.2973 11.8512 15.0824C11.8971 14.715 12.1695 14.3015 12.489 14.1143C12.7678 13.9509 12.9369 13.9094 13.2795 13.9202C13.5662 13.9292 13.6152 13.9407 13.8407 14.0522ZM10.8673 14.079C10.9905 14.1421 11.0516 14.2468 11.0524 14.3964C11.053 14.5085 11.034 14.5569 10.961 14.63C10.8781 14.7128 10.8396 14.7242 10.5769 14.7429C10.0818 14.7782 10.0265 14.7907 9.89968 14.8952C9.68627 15.0711 9.66388 15.3853 9.8497 15.597C9.9558 15.7178 10.0193 15.7431 10.4588 15.8398C10.6263 15.8766 10.8322 15.9418 10.9164 15.9845C11.1348 16.0955 11.3395 16.3134 11.4564 16.5594C11.5448 16.7454 11.5573 16.8065 11.557 17.0497C11.5566 17.3934 11.4648 17.6177 11.2174 17.8792C10.9472 18.1649 10.7725 18.2251 10.0923 18.2671C9.78233 18.2862 9.48802 18.2916 9.43828 18.2791C9.28746 18.2413 9.18999 18.1176 9.18999 17.9642C9.18999 17.6649 9.28115 17.6197 9.97741 17.5734C10.4535 17.5419 10.527 17.5291 10.6312 17.4601C10.844 17.3193 10.9154 17.0432 10.7965 16.8214C10.7029 16.6469 10.6058 16.5955 10.1763 16.4928C9.95734 16.4404 9.73124 16.3733 9.67391 16.3436C9.48194 16.2443 9.23533 15.979 9.13684 15.7658C9.05535 15.5894 9.0429 15.5234 9.0429 15.2676C9.0429 15.001 9.05307 14.952 9.14913 14.7569C9.35195 14.3449 9.69607 14.1214 10.1959 14.077C10.6291 14.0385 10.789 14.039 10.8673 14.079ZM18.8054 14.2999C18.7693 14.3227 18.7745 14.5599 18.8352 15.6804C18.8755 16.4245 18.92 17.0464 18.9339 17.0625C18.9785 17.1135 19.5028 17.0262 19.6746 16.9392C19.8647 16.8428 20.056 16.6398 20.1518 16.4326C20.2152 16.2955 20.221 16.2324 20.2149 15.7494C20.2074 15.1597 20.1633 14.9322 20.0141 14.7135C19.8938 14.5372 19.6811 14.3813 19.4788 14.3212C19.299 14.2678 18.877 14.2544 18.8054 14.2999ZM12.9303 14.6928C12.7631 14.7687 12.6055 14.9573 12.5607 15.1349C12.5359 15.2335 12.5391 15.4955 12.5722 16.0762C12.611 16.7579 12.628 16.9005 12.6835 17.0092C12.8988 17.4313 13.4227 17.5358 13.7665 17.2252C13.9984 17.0157 14.0127 16.9297 13.9663 16.0244C13.944 15.5905 13.9099 15.1813 13.8904 15.1148C13.8078 14.8339 13.5306 14.6323 13.2268 14.6323C13.1369 14.6323 13.0034 14.6595 12.9303 14.6928Z" fill="#93AEC0"/>
<defs>
<linearGradient id="paint0_linear_119_1424" x1="5.57808e-07" y1="1.03614" x2="30" y2="1.03614" gradientUnits="userSpaceOnUse">
<stop stop-color="#F1FAFF"/>
<stop offset="0.972083" stop-color="#E9F1F8"/>
</linearGradient>
</defs>
</svg>
