<svg width="30" height="30" viewBox="0 0 30 30" fill="none" xmlns="http://www.w3.org/2000/svg">
<circle cx="15" cy="15" r="15" fill="url(#paint0_linear_732_2624)"/>
<path d="M16.1755 10.3454C16.3837 10.1472 16.6607 10.0376 16.9482 10.0398C17.2356 10.042 17.511 10.1557 17.7162 10.3571C17.9214 10.5584 18.0403 10.8316 18.0479 11.119C18.0555 11.4063 17.9511 11.6854 17.7569 11.8973L11.8598 19.2724C11.7584 19.3816 11.636 19.4693 11.4999 19.5301C11.3639 19.591 11.2169 19.6238 11.0679 19.6265C10.9189 19.6293 10.7709 19.602 10.6327 19.5462C10.4945 19.4904 10.3689 19.4074 10.2635 19.302L7.35281 16.3912C7.2439 16.2898 7.15655 16.1674 7.09596 16.0314C7.03538 15.8954 7.0028 15.7487 7.00017 15.5998C6.99755 15.451 7.02493 15.3031 7.08068 15.1651C7.13643 15.0271 7.21941 14.9017 7.32467 14.7965C7.42993 14.6912 7.55531 14.6082 7.69334 14.5525C7.83136 14.4967 7.9792 14.4693 8.12804 14.472C8.27688 14.4746 8.42366 14.5072 8.55963 14.5677C8.69561 14.6283 8.81798 14.7157 8.91946 14.8246L11.0144 16.918L16.1459 10.3779C16.1551 10.3665 16.165 10.3557 16.1755 10.3454ZM13.8157 17.9422L15.1755 19.302C15.2808 19.4071 15.4063 19.49 15.5443 19.5456C15.6824 19.6013 15.8303 19.6285 15.9791 19.6257C16.1279 19.623 16.2747 19.5903 16.4106 19.5296C16.5465 19.4689 16.6688 19.3814 16.7702 19.2724L22.6703 11.8973C22.7763 11.7927 22.8601 11.6677 22.9167 11.53C22.9734 11.3922 23.0017 11.2445 22.9999 11.0956C22.9982 10.9466 22.9665 10.7996 22.9066 10.6632C22.8468 10.5268 22.7601 10.4039 22.6517 10.3017C22.5433 10.1996 22.4154 10.1203 22.2757 10.0687C22.136 10.0171 21.9873 9.99415 21.8386 10.0013C21.6898 10.0084 21.544 10.0454 21.4098 10.1101C21.2757 10.1748 21.156 10.2659 21.0578 10.3779L15.9248 16.918L15.208 16.1997L13.8142 17.9422H13.8157Z" fill="#009EF6"/>
<defs>
<linearGradient id="paint0_linear_732_2624" x1="5.57808e-07" y1="1.03614" x2="30" y2="1.03614" gradientUnits="userSpaceOnUse">
<stop stop-color="#F1FAFF"/>
<stop offset="0.972083" stop-color="#E9F1F8"/>
</linearGradient>
</defs>
</svg>
