<svg width="13" height="14" viewBox="0 0 13 14" fill="none" xmlns="http://www.w3.org/2000/svg">
<path d="M13.0006 5.73966C11.7968 5.74254 10.6225 5.36712 9.6436 4.66642V9.55329C9.64327 10.4584 9.36662 11.3418 8.85065 12.0855C8.33468 12.8291 7.60399 13.3975 6.75626 13.7146C5.90854 14.0317 4.9842 14.0825 4.10684 13.8601C3.22948 13.6378 2.44093 13.1528 1.84661 12.4702C1.25229 11.7876 0.880545 10.9397 0.781076 10.0401C0.681608 9.1405 0.859158 8.23196 1.28999 7.43597C1.72082 6.63998 2.38439 5.9945 3.19197 5.58582C3.99956 5.17714 4.91266 5.02476 5.80919 5.14904V7.60697C5.39894 7.47792 4.9584 7.48181 4.55049 7.61807C4.14257 7.75434 3.78815 8.01601 3.53782 8.36572C3.2875 8.71543 3.15408 9.13529 3.15661 9.56536C3.15914 9.99542 3.2975 10.4137 3.55193 10.7604C3.80636 11.1072 4.16384 11.3646 4.57333 11.4961C4.98282 11.6275 5.42337 11.6262 5.83208 11.4924C6.24078 11.3585 6.59673 11.0989 6.84911 10.7507C7.10148 10.4024 7.23736 9.98336 7.23735 9.55329V-6.10352e-05H9.6436C9.64193 0.203141 9.65895 0.406066 9.69446 0.60615C9.77808 1.0528 9.95193 1.47771 10.2054 1.85487C10.4589 2.23202 10.7866 2.55351 11.1686 2.79966C11.712 3.15899 12.3491 3.3505 13.0006 3.35037V5.73966Z" fill="url(#paint0_linear_118_622)"/>
<defs>
<linearGradient id="paint0_linear_118_622" x1="0.948538" y1="0.790061" x2="14.2593" y2="11.7741" gradientUnits="userSpaceOnUse">
<stop stop-color="#FDD8A0"/>
<stop offset="1" stop-color="#FC657C"/>
</linearGradient>
</defs>
</svg>
