<svg width="14" height="12" viewBox="0 0 14 12" fill="none" xmlns="http://www.w3.org/2000/svg">
<path d="M14 1.54888C13.6101 2.12877 13.1318 2.6231 12.5651 3.03187C12.5707 3.1415 12.5735 3.26541 12.5735 3.4036C12.5735 4.17141 12.4616 4.94015 12.2377 5.70982C12.0138 6.47949 11.6718 7.21621 11.2117 7.91996C10.7516 8.62371 10.2036 9.24718 9.56757 9.79035C8.93156 10.3335 8.16704 10.7666 7.27402 11.0896C6.381 11.4127 5.42392 11.5742 4.40279 11.5742C2.80914 11.5742 1.34154 11.144 0 10.2835C0.238108 10.31 0.466473 10.3232 0.685096 10.3232C2.01646 10.3232 3.20559 9.91316 4.25247 9.09301C3.63171 9.08163 3.07577 8.89054 2.58466 8.51974C2.09355 8.14895 1.75557 7.67514 1.57074 7.09833C1.75344 7.13313 1.93375 7.15053 2.11168 7.15053C2.3678 7.15053 2.61982 7.11712 2.86774 7.05031C2.20528 6.91764 1.65571 6.58768 1.21903 6.06046C0.782367 5.53324 0.564036 4.92474 0.564036 4.23493V4.19938C0.97066 4.42452 1.40439 4.54428 1.86522 4.55866C1.47278 4.29703 1.16164 3.95586 0.931785 3.53515C0.701919 3.11444 0.586986 2.65916 0.586986 2.16931C0.586986 1.65268 0.716445 1.17159 0.975364 0.726061C1.69578 1.61013 2.56872 2.3167 3.59418 2.84578C4.61965 3.37487 5.71978 3.66871 6.89458 3.7273C6.84447 3.51848 6.81937 3.30057 6.81928 3.07356C6.81928 2.28094 7.09978 1.60415 7.66077 1.0432C8.22177 0.482256 8.89858 0.201782 9.69121 0.201782C10.5211 0.201782 11.2201 0.50395 11.7882 1.10829C12.4373 0.97971 13.0451 0.747149 13.6116 0.410602C13.3933 1.09742 12.9728 1.62725 12.35 2.0001C12.9224 1.93208 13.4724 1.78167 14 1.54888H14Z" fill="url(#paint0_linear_118_620)"/>
<defs>
<linearGradient id="paint0_linear_118_620" x1="0.222222" y1="0.843773" x2="11.1161" y2="13.4919" gradientUnits="userSpaceOnUse">
<stop stop-color="#FDD8A0"/>
<stop offset="1" stop-color="#FC657C"/>
</linearGradient>
</defs>
</svg>
