<svg width="25" height="25" viewBox="0 0 25 25" fill="none" xmlns="http://www.w3.org/2000/svg">
<path d="M11.3959 6.33336C11.7612 6.27736 12.1304 6.2495 12.5 6.25003C15.8125 6.25003 18.9271 8.63545 20.7396 12.5C20.4624 13.0881 20.1493 13.6587 19.8021 14.2084C19.6919 14.379 19.634 14.5781 19.6354 14.7813C19.6378 15.0086 19.7144 15.2289 19.8536 15.4087C19.9929 15.5884 20.1871 15.7176 20.4066 15.7766C20.6262 15.8356 20.859 15.8212 21.0696 15.7355C21.2802 15.6499 21.457 15.4976 21.5729 15.3021C22.0583 14.5395 22.4799 13.7382 22.8334 12.9063C22.8892 12.7763 22.9181 12.6363 22.9181 12.4948C22.9181 12.3533 22.8892 12.2133 22.8334 12.0834C20.7292 7.19795 16.7709 4.1667 12.5 4.1667C12.0111 4.16423 11.523 4.20607 11.0417 4.2917C10.9049 4.31495 10.774 4.36492 10.6565 4.43876C10.5391 4.51259 10.4373 4.60884 10.357 4.72201C10.2767 4.83518 10.2195 4.96306 10.1886 5.09834C10.1578 5.23362 10.1539 5.37365 10.1771 5.51045C10.2004 5.64724 10.2503 5.77811 10.3242 5.8956C10.398 6.01308 10.4943 6.11487 10.6074 6.19515C10.7206 6.27543 10.8485 6.33264 10.9838 6.36351C11.119 6.39437 11.2591 6.39829 11.3959 6.37503V6.33336ZM3.86461 2.38545C3.76749 2.28832 3.65219 2.21128 3.52529 2.15872C3.39839 2.10616 3.26238 2.0791 3.12503 2.0791C2.98768 2.0791 2.85167 2.10616 2.72477 2.15872C2.59787 2.21128 2.48257 2.28832 2.38545 2.38545C2.1893 2.5816 2.0791 2.84763 2.0791 3.12503C2.0791 3.40243 2.1893 3.66846 2.38545 3.86461L5.61461 7.08336C4.14125 8.50162 2.96863 10.2021 2.1667 12.0834C2.10934 12.2148 2.07973 12.3566 2.07973 12.5C2.07973 12.6434 2.10934 12.7853 2.1667 12.9167C4.27086 17.8021 8.2292 20.8334 12.5 20.8334C14.372 20.8204 16.1998 20.2631 17.7604 19.2292L21.1354 22.6146C21.2323 22.7122 21.3475 22.7897 21.4744 22.8426C21.6014 22.8955 21.7375 22.9227 21.875 22.9227C22.0125 22.9227 22.1487 22.8955 22.2756 22.8426C22.4026 22.7897 22.5178 22.7122 22.6146 22.6146C22.7122 22.5178 22.7897 22.4026 22.8426 22.2756C22.8955 22.1487 22.9227 22.0125 22.9227 21.875C22.9227 21.7375 22.8955 21.6014 22.8426 21.4744C22.7897 21.3475 22.7122 21.2323 22.6146 21.1354L3.86461 2.38545ZM10.4896 11.9584L13.0417 14.5104C12.8656 14.5609 12.6832 14.5855 12.5 14.5834C11.9475 14.5834 11.4176 14.3639 11.0269 13.9732C10.6362 13.5825 10.4167 13.0526 10.4167 12.5C10.4146 12.3169 10.4391 12.1344 10.4896 11.9584ZM12.5 18.75C9.18753 18.75 6.07295 16.3646 4.27086 12.5C4.94387 11.0144 5.89906 9.67355 7.08336 8.55211L8.92711 10.4167C8.49404 11.2071 8.32893 12.1166 8.45655 13.0088C8.58417 13.901 8.99765 14.7278 9.63495 15.3651C10.2723 16.0024 11.099 16.4159 11.9912 16.5435C12.8834 16.6711 13.793 16.506 14.5834 16.0729L16.2396 17.7084C15.1053 18.3759 13.8161 18.7351 12.5 18.75Z" fill="#93AEC0"/>
</svg>
