<svg width="16" height="12" viewBox="0 0 16 12" fill="none" xmlns="http://www.w3.org/2000/svg">
<path d="M15.0296 2.39291C14.8579 1.74623 14.3518 1.23693 13.7094 1.06409C12.5448 0.750015 7.875 0.750015 7.875 0.750015C7.875 0.750015 3.20523 0.750015 2.04064 1.06409C1.39814 1.23695 0.892118 1.74623 0.720372 2.39291C0.408325 3.56505 0.408325 6.01062 0.408325 6.01062C0.408325 6.01062 0.408325 8.45619 0.720372 9.62833C0.892118 10.275 1.39814 10.7631 2.04064 10.9359C3.20523 11.25 7.875 11.25 7.875 11.25C7.875 11.25 12.5448 11.25 13.7094 10.9359C14.3518 10.7631 14.8579 10.275 15.0296 9.62833C15.3417 8.45619 15.3417 6.01062 15.3417 6.01062C15.3417 6.01062 15.3417 3.56505 15.0296 2.39291ZM6.34771 8.23101V3.79023L10.2507 6.01068L6.34771 8.23101Z" fill="url(#paint0_linear_118_619)"/>
<defs>
<linearGradient id="paint0_linear_118_619" x1="0.645362" y1="1.34276" x2="10.3925" y2="14.4169" gradientUnits="userSpaceOnUse">
<stop stop-color="#FDD8A0"/>
<stop offset="1" stop-color="#FC657C"/>
</linearGradient>
</defs>
</svg>
